<?xml version="1.0" encoding="utf-8"?><!-- Uploaded to: SVG Repo, www.svgrepo.com, Generator: SVG Repo Mixer Tools -->
<svg width="800px" height="800px" viewBox="0 0 24 24" fill="none" xmlns="http://www.w3.org/2000/svg">
<path fill-rule="evenodd" clip-rule="evenodd" d="M12.0001 3C12.3334 3 12.6449 3.16613 12.8306 3.443L16.6106 9.07917L21.2523 3.85213C21.5515 3.51525 22.039 3.42002 22.4429 3.61953C22.8469 3.81904 23.0675 4.26404 22.9818 4.70634L20.2956 18.5706C20.0223 19.9812 18.7872 21 17.3504 21H6.64977C5.21293 21 3.97784 19.9812 3.70454 18.5706L1.01833 4.70634C0.932635 4.26404 1.15329 3.81904 1.55723 3.61953C1.96117 3.42002 2.44865 3.51525 2.74781 3.85213L7.38953 9.07917L11.1696 3.443C11.3553 3.16613 11.6667 3 12.0001 3ZM12.0001 5.79533L8.33059 11.2667C8.1582 11.5237 7.8765 11.6865 7.56772 11.7074C7.25893 11.7283 6.95785 11.6051 6.75234 11.3737L3.67615 7.90958L5.66802 18.1902C5.75913 18.6604 6.17082 19 6.64977 19H17.3504C17.8293 19 18.241 18.6604 18.3321 18.1902L20.324 7.90958L17.2478 11.3737C17.0423 11.6051 16.7412 11.7283 16.4324 11.7074C16.1236 11.6865 15.842 11.5237 15.6696 11.2667L12.0001 5.79533Z" fill="#000000"/>
</svg>