<?xml version="1.0" encoding="utf-8"?><!-- Uploaded to: SVG Repo, www.svgrepo.com, Generator: SVG Repo Mixer Tools -->
<svg fill="#000000" width="800px" height="800px" viewBox="0 0 24 24" id="vr-glasses" data-name="Flat Line" xmlns="http://www.w3.org/2000/svg" class="icon flat-line"><path id="secondary" d="M19,11v6a1,1,0,0,1-1,1H16.25a2.49,2.49,0,0,1-2-1h0a2.49,2.49,0,0,0-2-1h-.5a2.49,2.49,0,0,0-2,1h0a2.49,2.49,0,0,1-2,1H6a1,1,0,0,1-1-1V11a1,1,0,0,1,1-1H18A1,1,0,0,1,19,11Z" style="fill: rgb(44, 169, 188); stroke-width: 2;"></path><path id="primary" d="M21,12.5v3L19,16V12Zm-18,0v3L5,16V12ZM16.76,9a4,4,0,0,0-3.88-3H11.12A4,4,0,0,0,7.24,9L7,10H17ZM18,10H6a1,1,0,0,0-1,1v6a1,1,0,0,0,1,1H7.75a2.49,2.49,0,0,0,2-1h0a2.49,2.49,0,0,1,2-1h.5a2.49,2.49,0,0,1,2,1h0a2.49,2.49,0,0,0,2,1H18a1,1,0,0,0,1-1V11A1,1,0,0,0,18,10Z" style="fill: none; stroke: rgb(0, 0, 0); stroke-linecap: round; stroke-linejoin: round; stroke-width: 2;"></path></svg>