<?xml version="1.0" ?>

<!-- Uploaded to: SVG Repo, www.svgrepo.com, Generator: SVG Repo Mixer Tools -->
<svg width="50px" height="50px" viewBox="0 0 32 32" id="svg5" version="1.1" xmlns="http://www.w3.org/2000/svg" xmlns:svg="http://www.w3.org/2000/svg">

<defs id="defs2"/>

<g id="layer1" transform="translate(-396,-292)">

<path d="m 420,309.01367 a 1,1 0 0 0 -1,1 1,1 0 0 0 1,1 1,1 0 0 0 1,-1 1,1 0 0 0 -1,-1 z" id="path453477" style="color:#000000;fill:#000000;fill-rule:evenodd;stroke-linecap:round;stroke-linejoin:round;stroke-miterlimit:4.1;-inkscape-stroke:none"/>

<path d="m 417,309.01367 a 1,1 0 0 0 -1,1 1,1 0 0 0 1,1 1,1 0 0 0 1,-1 1,1 0 0 0 -1,-1 z" id="path453475" style="color:#000000;fill:#000000;fill-rule:evenodd;stroke-linecap:round;stroke-linejoin:round;stroke-miterlimit:4.1;-inkscape-stroke:none"/>

<path d="m 414,309.01367 a 1,1 0 0 0 -1,1 1,1 0 0 0 1,1 1,1 0 0 0 1,-1 1,1 0 0 0 -1,-1 z" id="path453473" style="color:#000000;fill:#000000;fill-rule:evenodd;stroke-linecap:round;stroke-linejoin:round;stroke-miterlimit:4.1;-inkscape-stroke:none"/>

<path d="m 410,300.01367 a 1,1 0 0 0 -1,1 1,1 0 0 0 1,1 1,1 0 0 0 1,-1 1,1 0 0 0 -1,-1 z" id="path453457" style="color:#000000;fill:#000000;fill-rule:evenodd;stroke-linecap:round;stroke-linejoin:round;stroke-miterlimit:4.1;-inkscape-stroke:none"/>

<path d="m 407,300.01367 a 1,1 0 0 0 -1,1 1,1 0 0 0 1,1 1,1 0 0 0 1,-1 1,1 0 0 0 -1,-1 z" id="path453455" style="color:#000000;fill:#000000;fill-rule:evenodd;stroke-linecap:round;stroke-linejoin:round;stroke-miterlimit:4.1;-inkscape-stroke:none"/>

<path d="m 404,300.01367 a 1,1 0 0 0 -1,1 1,1 0 0 0 1,1 1,1 0 0 0 1,-1 1,1 0 0 0 -1,-1 z" id="path453453" style="color:#000000;fill:#000000;fill-rule:evenodd;stroke-linecap:round;stroke-linejoin:round;stroke-miterlimit:4.1;-inkscape-stroke:none"/>

<path d="m 400.05859,294.01367 c -1.09347,0 -2.05859,0.87774 -2.05859,2 v 10 c 0,1.12227 0.96512,2 2.05859,2 H 402 v 3 a 1.0001,1.0001 0 0 0 1.70703,0.70703 l 3.70703,-3.70703 H 408 v 7 c 0,1.122 0.96512,2 2.05859,2 h 4.88086 l 3.70703,3.70703 a 1.0001,1.0001 0 0 0 1.70704,-0.70703 v -3 h 3.58789 c 1.09347,0 2.05859,-0.87802 2.05859,-2 v -10 c 0,-1.12198 -0.96512,-2 -2.05859,-2 H 416 v -7 c 0,-1.12226 -0.96512,-2 -2.05859,-2 z m 0,2 h 13.88282 c 0.0399,0 0.0539,0.004 0.0586,0.006 v 9.98828 c -0.005,0.002 -0.0187,0.006 -0.0586,0.006 H 407 a 1.0001,1.0001 0 0 0 -0.70703,0.29297 L 404,308.59961 v -1.58594 a 1.0001,1.0001 0 0 0 -1,-1 h -2.94141 c -0.0399,0 -0.0539,-0.004 -0.0586,-0.006 v -9.98828 c 0.005,-0.002 0.0187,-0.006 0.0586,-0.006 z m 15.94141,9 h 7.94141 c 0.0399,0 0.0539,0.004 0.0586,0.006 v 9.98828 c -0.005,0.002 -0.0187,0.006 -0.0586,0.006 h -4.58789 a 1.0001,1.0001 0 0 0 -1,1 v 1.58594 l -2.29297,-2.29297 a 1.0001,1.0001 0 0 0 -0.70703,-0.29297 h -5.29493 c -0.0399,0 -0.0539,-0.004 -0.0586,-0.006 v -6.99414 h 3.94141 c 1.09347,0 2.05859,-0.87773 2.05859,-2 z" id="path453429" style="color:#000000;fill:#000000;fill-rule:evenodd;stroke-linecap:round;stroke-linejoin:round;stroke-miterlimit:4.1;-inkscape-stroke:none"/>

</g>

</svg>