<?xml version="1.0" encoding="utf-8"?>

<!DOCTYPE svg PUBLIC "-//W3C//DTD SVG 1.1//EN" "http://www.w3.org/Graphics/SVG/1.1/DTD/svg11.dtd">
<!-- Uploaded to: SVG Repo, www.svgrepo.com, Generator: SVG Repo Mixer Tools -->
<svg height="50px" width="50px" version="1.1" id="_x32_" xmlns="http://www.w3.org/2000/svg" xmlns:xlink="http://www.w3.org/1999/xlink" 
	 viewBox="0 0 512 512"  xml:space="preserve">
<style type="text/css">
	.st0{fill:#000000;}
</style>
<g>
	<path class="st0" d="M389.488,226.899H122.512C54.854,226.899,0,281.746,0,349.412c0,67.658,54.854,122.512,122.512,122.512
		c42.653,0,80.199-21.812,102.135-54.854h62.706c21.936,33.042,59.49,54.854,102.135,54.854C457.154,471.924,512,417.07,512,349.412
		C512,281.746,457.154,226.899,389.488,226.899z M389.488,440.332c-30.535,0-58.881-15.226-75.818-40.74l-9.372-14.115h-16.945
		h-62.706h-16.945l-9.371,14.115c-16.938,25.514-45.282,40.74-75.819,40.74c-50.134,0-90.92-40.786-90.92-90.92
		c0-50.134,40.786-90.921,90.92-90.921h266.976c50.134,0,90.92,40.786,90.92,90.921
		C480.408,399.545,439.622,440.332,389.488,440.332z"/>
	<path class="st0" d="M268.927,110.897c0-2.46,0.486-4.72,1.366-6.803c1.311-3.116,3.548-5.8,6.332-7.69
		c2.8-1.89,6.085-2.97,9.757-2.97c2.437,0,4.705,0.494,6.788,1.373c3.116,1.311,5.799,3.533,7.689,6.333
		c1.882,2.8,2.97,6.085,2.97,9.756c0,5.893,1.203,11.593,3.394,16.752c3.278,7.744,8.716,14.292,15.58,18.928
		c6.849,4.643,15.21,7.374,24.08,7.366c5.916,0,11.616-1.211,16.768-3.394c7.728-3.278,14.284-8.716,18.92-15.58
		c4.643-6.857,7.366-15.21,7.366-24.072v-70.82h-25.607v70.82c0,2.437-0.478,4.705-1.357,6.78c-1.319,3.124-3.556,5.808-6.333,7.69
		c-2.808,1.881-6.093,2.969-9.757,2.969c-2.436,0-4.705-0.486-6.787-1.365c-3.116-1.311-5.8-3.548-7.682-6.333
		c-1.889-2.8-2.977-6.1-2.992-9.741c0.016-5.924-1.188-11.616-3.378-16.768c-3.279-7.744-8.716-14.292-15.58-18.928
		c-6.864-4.651-15.21-7.374-24.08-7.366c-5.909-0.008-11.608,1.203-16.768,3.394c-7.743,3.263-14.292,8.716-18.927,15.58
		c-4.644,6.857-7.359,15.21-7.359,24.088v104.71h25.599V110.897z"/>
	<polygon class="st0" points="138.363,293.338 105.452,293.338 105.452,331.124 67.658,331.124 67.658,364.051 105.452,364.051 
		105.452,401.829 138.363,401.829 138.363,364.051 176.156,364.051 176.156,331.124 138.363,331.124 	"/>
	<path class="st0" d="M375.126,289.698c-7.937,7.929-7.921,20.794,0,28.723c7.936,7.929,20.794,7.929,28.716,0
		c7.936-7.929,7.936-20.794,0-28.723C395.92,281.769,383.063,281.769,375.126,289.698z"/>
	<path class="st0" d="M329.774,335.05c-7.929,7.929-7.929,20.794,0,28.723c7.937,7.929,20.794,7.929,28.723,0
		c7.93-7.929,7.93-20.794,0-28.731C350.568,327.121,337.711,327.121,329.774,335.05z"/>
	<path class="st0" d="M375.126,380.402c-7.937,7.929-7.937,20.786,0,28.715c7.936,7.929,20.794,7.929,28.716,0.008
		c7.936-7.937,7.936-20.794,0-28.739C395.92,372.457,383.063,372.473,375.126,380.402z"/>
	<path class="st0" d="M449.193,335.05c-7.921-7.929-20.786-7.929-28.723,0c-7.937,7.929-7.937,20.794,0,28.723
		c7.937,7.929,20.802,7.929,28.723,0C457.123,355.844,457.123,342.979,449.193,335.05z"/>
</g>
</svg>