<?xml version="1.0" ?><!DOCTYPE svg  PUBLIC '-//W3C//DTD SVG 1.1//EN'  'http://www.w3.org/Graphics/SVG/1.1/DTD/svg11.dtd'><svg enable-background="new 0 0 50 50" height="50px" id="Layer_1" version="1.1" viewBox="0 0 50 50" width="50px" xml:space="preserve" xmlns="http://www.w3.org/2000/svg" xmlns:xlink="http://www.w3.org/1999/xlink"><rect fill="none" height="50" width="50"/><rect fill="none" height="50" width="50"/><g><circle cx="6" cy="6" fill="none" r="5" stroke="#000000" stroke-linecap="round" stroke-linejoin="round" stroke-miterlimit="10" stroke-width="2"/></g><g><path d="   M11.436,22.809l17.75,17.741c-2.185-0.034-4.366-0.417-6.426-1.237c-0.826-0.156-4.149-0.694-5.417,0.572   c-2.902,2.901-5.554,6.861-7.006,8.313c-1.45,1.45-3.507,0.846-5.454-1.099c-1.946-1.947-2.506-4.045-1.098-5.451   c1.406-1.406,5.412-4.1,8.318-7.004c1.328-1.33,0.638-5.009,0.533-5.527C11.842,27.094,11.473,24.953,11.436,22.809z M29.186,40.55   c6.631-0.369,10.469-2.632,13.081-5.245c7.066-7.064,10.093-18.396,1.455-27.028C35.09-0.354,23.747,2.666,16.683,9.728   c-2.614,2.612-4.664,5.638-5.247,13.082" fill="none" stroke="#000000" stroke-linecap="round" stroke-linejoin="round" stroke-miterlimit="10" stroke-width="2"/></g></svg>