<?xml version="1.0" encoding="utf-8"?>

<!-- Uploaded to: SVG Repo, www.svgrepo.com, Generator: SVG Repo Mixer Tools -->
<svg version="1.1" id="Icons" xmlns="http://www.w3.org/2000/svg" xmlns:xlink="http://www.w3.org/1999/xlink" 
	 viewBox="0 0 32 32" xml:space="preserve" width="50px" height="50px">
<style type="text/css">
	.st0{fill:none;stroke:#000000;stroke-width:2;stroke-linecap:round;stroke-linejoin:round;stroke-miterlimit:10;}
</style>
<path class="st0" d="M18.9,9.1c-1-0.2-2,0-2.8,0.4c-0.7,0.4-1.6,0.5-2.4,0.2c-0.1,0-0.2-0.1-0.3-0.1l-8-1.3C4.1,8.2,3,9.1,3,10.2
	v5.9c0,1.2,1.1,2,2.3,1.9l8-1.3c0.1,0,0.2,0,0.3-0.1c0.9-0.3,1.9-0.3,2.9,0c0.5,0.2,1,0.3,1.5,0.3c2.5,0,4.5-2.3,3.9-4.9
	C21.6,10.6,20.4,9.4,18.9,9.1z"/>
<path class="st0" d="M9.5,9c1.3-3.6,4.7-6.2,8.8-6C23,3.2,27,7.2,27,11.9c0,1.8-0.5,3.5-1.4,4.9c-1.8,2.8-2.5,6.2-1.6,9.4l1,3.8H13
	l0.7-3.9c0.2-0.9-0.7-1.6-1.5-1.3l0,0c-2,0.6-4-1-3.8-3.1L8.6,18H7.5c-0.3,0-0.5-0.1-0.7-0.2"/>
<path class="st0" d="M18,20.3c0,1.6-1,3.1-2.6,3.6l-3.3,0.9"/>
<circle class="st0" cx="18" cy="13" r="1"/>
</svg>