<!doctype html>
<svg viewBox="47.5 34.5 345 181" width="345" height="181">
  <g>
    <title>FieldBorder</title>
    <path d="M 63.282 38.282 C 61.536 40.029 60.478 42.341 60.5 45 L 60.5 205 C 60.478 207.659 61.536 209.971 63.282 211.718 C 65.029 213.464 67.341 214.522 70 214.5 L 370 214.5 C 372.659 214.522 374.971 213.464 376.718 211.718 C 378.464 209.971 379.522 207.659 379.5 205 L 379.5 45 C 379.522 42.341 378.464 40.029 376.718 38.282 C 374.971 36.536 372.659 35.478 370 35.5 L 70 35.5 C 67.341 35.478 65.029 36.536 63.282 38.282 Z M 70 34.5 L 370 34.5 C 372.864 34.522 375.552 35.703 377.425 37.575 C 379.297 39.448 380.478 42.136 380.5 45 L 380.5 205 C 380.478 207.864 379.297 210.552 377.425 212.425 C 375.552 214.297 372.864 215.478 370 215.5 L 70 215.5 C 67.136 215.478 64.448 214.297 62.575 212.425 C 60.703 210.552 59.522 207.864 59.5 205 L 59.5 45 C 59.522 42.136 60.703 39.448 62.575 37.575 C 64.448 35.703 67.136 34.522 70 34.5 Z M 63.282 38.282 C 61.536 40.029 60.478 42.341 60.5 45 L 60.5 205 C 60.478 207.659 61.536 209.971 63.282 211.718 C 65.029 213.464 67.341 214.522 70 214.5 L 370 214.5 C 372.659 214.522 374.971 213.464 376.718 211.718 C 378.464 209.971 379.522 207.659 379.5 205 L 379.5 45 C 379.522 42.341 378.464 40.029 376.718 38.282 C 374.971 36.536 372.659 35.478 370 35.5 L 70 35.5 C 67.341 35.478 65.029 36.536 63.282 38.282 Z M 70.5 37 L 369.5 37 C 371.811 37.022 374 37.979 375.51 39.49 C 377.021 41 377.978 43.189 378 45.5 L 378 204.5 C 377.978 206.811 377.021 209 375.51 210.51 C 374 212.021 371.811 212.978 369.5 213 L 70.5 213 C 68.189 212.978 66 212.021 64.49 210.51 C 62.979 209 62.022 206.811 62 204.5 L 62 45.5 C 62.022 43.189 62.979 41 64.49 39.49 C 66 37.979 68.189 37.022 70.5 37 Z" style="stroke: rgb(242, 255, 0); fill: rgb(242, 255, 0);">
      <title>OuterPath</title>
    </path>
    <path d="M 70.5 37 L 369.5 37 C 371.811 37.022 374 37.979 375.51 39.49 C 377.021 41 377.978 43.189 378 45.5 L 378 204.5 C 377.978 206.811 377.021 209 375.51 210.51 C 374 212.021 371.811 212.978 369.5 213 L 70.5 213 C 68.189 212.978 66 212.021 64.49 210.51 C 62.979 209 62.022 206.811 62 204.5 L 62 45.5 C 62.022 43.189 62.979 41 64.49 39.49 C 66 37.979 68.189 37.022 70.5 37 Z M 65.197 40.197 C 63.812 41.581 62.978 43.393 63 45.5 L 63 204.5 C 62.978 206.607 63.812 208.419 65.197 209.803 C 66.581 211.188 68.393 212.022 70.5 212 L 369.5 212 C 371.607 212.022 373.419 211.188 374.803 209.803 C 376.188 208.419 377.022 206.607 377 204.5 L 377 45.5 C 377.022 43.393 376.188 41.581 374.803 40.197 C 373.419 38.812 371.607 37.978 369.5 38 L 70.5 38 C 68.393 37.978 66.581 38.812 65.197 40.197 Z" style="fill: rgb(88, 237, 222); stroke: rgb(88, 237, 222);">
      <title>InnerPath</title>
    </path>
  </g>
  <g>
    <title>GoalLeftBorder</title>
    <path style="fill: rgb(81, 221, 111); stroke: rgb(85, 218, 109);" d="M 52.5 93.75 L 59.5 93.75 L 59.5 156.25 L 52.5 156.25 C 49.738 156.25 47.5 154.012 47.5 151.25 L 47.5 98.75 C 47.5 95.989 49.738 93.75 52.5 93.75 Z">
      <title>OuterPath</title>
    </path>
    <path style="fill: rgb(252, 130, 130); stroke: rgb(252, 130, 130);" d="M 52.5 96 L 59.5 96 L 59.5 154 L 52.5 154 C 50.843 154 49.5 152.657 49.5 151 L 49.5 99 C 49.5 97.343 50.843 96 52.5 96 Z">
      <title>InnerPath</title>
    </path>
  </g>
  <g>
    <title>GoalRightBorder</title>
    <path style="fill: rgb(81, 221, 111); stroke: rgb(85, 218, 109);" d="M 385.5 156.25 L 392.5 156.25 L 392.5 93.75 L 385.5 93.75 C 382.738 93.75 380.5 95.988 380.5 98.75 L 380.5 151.25 C 380.5 154.011 382.738 156.25 385.5 156.25 Z" transform="matrix(-1, 0, 0, -1, 772.999998, 249.999998)">
      <title>OuterPath</title>
    </path>
    <path style="fill: rgb(252, 130, 130); stroke: rgb(252, 130, 130);" d="M 383.5 154 L 390.5 154 L 390.5 96 L 383.5 96 C 381.843 96 380.5 97.343 380.5 99 L 380.5 151 C 380.5 152.657 381.843 154 383.5 154 Z" transform="matrix(-1, 0, 0, -1, 770.999997, 249.999998)">
      <title>InnerPath</title>
    </path>
  </g>
  <g>
    <title>FieldGradient</title>
    <path style="fill: rgb(5, 255, 96); stroke: rgb(5, 255, 96);" d="M 70.375 37.75 L 220 37.75 L 220 212.25 L 70.375 212.25 C 66.027 212.25 62.5 208.678 62.5 204.273 L 62.5 45.727 C 62.5 41.322 66.027 37.75 70.375 37.75 Z"></path>
  </g>
</svg>